<svg xmlns="http://www.w3.org/2000/svg" viewBox="0 0 1000 1000" preserveAspectRatio="none">
<defs>
	<filter height="1.4" y="-.2" width="1.4" x="-.2" id="a" color-interpolation-filters="sRGB">
	<feTurbulence baseFrequency="0.0451" numOctaves="5" type="fractalNoise" result="result91"/>
	<feDisplacementMap scale="25" result="result5" xChannelSelector="R" in="SourceGraphic" in2="result91"/>
	<feComposite in="SourceGraphic" operator="atop" in2="result5"/>
	</filter>
</defs>
<path 
	stroke-width="5" 
	stroke="#000000" 
	filter="url(#a)"
	d="M 14.014014014014014,38.076152304609224 61.06106106106106,18.03607214428858 167.16716716716718,18.03607214428858 198.1981981981982,38.076152304609224 250.25025025025028,24.04809619238477 282.2822822822823,32.06412825651302 317.3173173173173,22.044088176352705 378.3783783783784,28.0561122244489 434.4344344344344,22.044088176352705 448.44844844844846,36.07214428857716 533.5335335335335,14.02805611222445 560.5605605605606,26.052104208416832 658.6586586586587,32.06412825651302 717.7177177177177,16.03206412825651 752.7527527527528,52.104208416833664 834.8348348348347,48.09619238476954 884.884884884885,28.0561122244489 933.933933933934,34.06813627254509 973.973973973974,34.06813627254509 986.986986986987,120.24048096192384 982.982982982983,292.5851703406814 972.972972972973,396.7935871743487 983.983983983984,486.9739478957916 986.986986986987,597.1943887775551 977.9779779779781,675.3507014028056 981.9819819819819,773.5470941883767 989.98998998999,865.7314629258517 952.952952952953,971.943887775551 885.885885885886,987.9759519038076 844.8448448448449,993.9879759519038 785.7857857857858,965.9318637274549 738.7387387387388,987.9759519038076 677.6776776776777,993.9879759519038 637.6376376376376,983.9679358717435 580.5805805805805,987.9759519038076 549.5495495495496,981.9639278557114 502.5025025025025,967.9358717434869 414.4144144144144,973.9478957915832 384.38438438438436,995.9919839679359 343.34334334334335,971.943887775551 292.2922922922923,981.9639278557114 246.24624624624624,987.9759519038076 208.20820820820822,977.9559118236473 160.16016016016016,983.9679358717435 108.10810810810811,989.9799599198396 37.03703703703704,939.8797595190381 7.007007007007007,853.7074148296592 15.015015015015015,745.4909819639279 20.02002002002002,685.370741482966 10.01001001001001,591.182364729459 22.02202202202202,436.87374749498997 19.01901901901902,376.75350701402806 13.013013013013014,258.51703406813624 28.02802802802803,128.2565130260521 20.02002002002002,28.0561122244489 Z"
/>
</svg>